<?xml version="1.0" encoding="UTF-8" standalone="no"?>
<!-- Generator: Adobe Illustrator 27.5.0, SVG Export Plug-In . SVG Version: 6.00 Build 0)  -->

<svg
   version="1.1"
   x="0px"
   y="0px"
   viewBox="0 0 128069.4 84404.586"
   xml:space="preserve"
   id="svg115"
   sodipodi:docname="1369793_192711-OY2HDP-903.svg"
   width="128069.4"
   height="84404.586"
   xmlns:inkscape="http://www.inkscape.org/namespaces/inkscape"
   xmlns:sodipodi="http://sodipodi.sourceforge.net/DTD/sodipodi-0.dtd"
   xmlns:xlink="http://www.w3.org/1999/xlink"
   xmlns="http://www.w3.org/2000/svg"
   xmlns:svg="http://www.w3.org/2000/svg"><defs
   id="defs115" /><sodipodi:namedview
   id="namedview115"
   pagecolor="#ffffff"
   bordercolor="#000000"
   borderopacity="0.25"
   inkscape:showpageshadow="2"
   inkscape:pageopacity="0.0"
   inkscape:pagecheckerboard="0"
   inkscape:deskcolor="#d1d1d1" />

<g
   id="OBJECTS"
   transform="translate(-60965.332,-88663.57)">
	
	
	
	
	<g
   id="g49"
   transform="matrix(-1,0,0,1,500.00014,0)"
   inkscape:export-filename="g49.png"
   inkscape:export-xdpi="96"
   inkscape:export-ydpi="96">
		<g
   id="g30">
			<g
   id="g19">
				<path
   style="fill:#9e7046"
   d="m 306.904,260.334 c 0.998,16.043 -11.689,29.886 -28.336,30.922 -16.647,1.033 -30.951,-11.133 -31.948,-27.175 -0.997,-16.042 11.69,-29.887 28.338,-30.921 16.647,-1.036 30.948,11.131 31.946,27.174 z"
   id="path17" />
				<path
   style="fill:#9e7046"
   d="m 297.027,246.748 c 0,0 21.302,-37.091 34.368,-33.122 13.067,3.968 11.934,34.548 -28.393,39.621 z"
   id="path18" />
				<path
   style="fill:#9e7046"
   d="m 262.435,238.061 c 0,0 -25.731,-34.168 -38.207,-28.612 -12.476,5.557 -7.563,35.76 33.081,35.799 z"
   id="path19" />
			</g>
			<g
   id="g29">
				<g
   id="g25">
					<path
   style="fill:#a97c50"
   d="m 321.037,198.692 c 0.435,7.01 -4.895,13.045 -11.904,13.481 -7.01,0.436 -13.045,-4.894 -13.479,-11.903 -0.438,-7.01 4.892,-13.045 11.902,-13.481 7.009,-0.435 13.045,4.894 13.481,11.903 z"
   id="path20" />
					<path
   style="fill:#a97c50"
   d="m 282.083,189.255 c 0.435,7.01 -4.893,13.045 -11.902,13.481 -7.01,0.436 -13.045,-4.893 -13.482,-11.903 -0.436,-7.009 4.894,-13.045 11.903,-13.481 7.009,-0.435 13.046,4.894 13.481,11.903 z"
   id="path21" />
					<path
   style="fill:#efafba"
   d="m 316.134,198.997 c 0.268,4.302 -3.004,8.006 -7.306,8.274 -4.302,0.268 -8.008,-3.003 -8.274,-7.306 -0.267,-4.302 3.004,-8.006 7.306,-8.274 4.302,-0.268 8.007,3.003 8.274,7.306 z"
   id="path22" />
					<path
   style="fill:#efafba"
   d="m 277.163,189.292 c 0.27,4.303 -3.002,8.007 -7.304,8.274 -4.303,0.268 -8.008,-3.003 -8.274,-7.306 -0.269,-4.302 3.003,-8.007 7.306,-8.274 4.302,-0.267 8.005,3.005 8.272,7.306 z"
   id="path23" />
					<path
   style="fill:#a97c50"
   d="m 310.527,214.311 c 0.947,15.243 -10.64,28.367 -25.884,29.315 -15.242,0.948 -28.367,-10.641 -29.315,-25.883 -0.946,-15.243 10.642,-28.368 25.885,-29.316 15.242,-0.947 28.367,10.64 29.314,25.884 z"
   id="path24" />
					<path
   style="fill:#d8b89a"
   d="m 277.17,213.526 c -9.643,0.6 -17.056,8.61 -17.047,18.141 5.323,7.745 14.459,12.585 24.521,11.959 3.151,-0.196 6.143,-0.919 8.902,-2.067 2.051,-3.156 3.143,-6.973 2.893,-11.019 -0.625,-10.02 -9.25,-17.637 -19.269,-17.014 z"
   id="path25" />
				</g>
				<path
   style="fill:#231f20"
   d="m 298.544,215.624 c -0.618,2.59 -2.529,-1.205 -5.401,-1.889 -2.871,-0.684 -5.617,2.003 -4.999,-0.587 0.615,-2.589 3.442,-4.133 6.314,-3.45 2.873,0.684 4.701,3.338 4.086,5.926 z"
   id="path26" />
				<path
   style="fill:#231f20"
   d="m 266.943,208.794 c -0.177,2.656 2.771,-0.403 5.719,-0.207 2.944,0.197 4.773,3.574 4.948,0.919 0.177,-2.656 -2.066,-4.968 -5.013,-5.164 -2.946,-0.198 -5.477,1.796 -5.654,4.452 z"
   id="path27" />
				<path
   style="fill:#231f20"
   d="m 289.49,225.056 c -0.939,3.262 -5.777,4.734 -10.811,3.288 -5.031,-1.445 -8.351,-5.262 -7.413,-8.525 0.938,-3.262 5.777,-4.734 10.81,-3.289 5.031,1.446 8.351,5.263 7.414,8.526 z"
   id="path28" />
				<path
   style="fill:#d17d7d"
   d="m 282.1,233.46 c -0.575,2.675 -3.274,4.361 -6.026,3.767 -2.75,-0.594 -4.513,-3.243 -3.934,-5.918 0.577,-2.674 2.609,-0.177 5.36,0.417 2.749,0.593 5.178,-0.941 4.6,1.734 z"
   id="path29" />
			</g>
		</g>
		<g
   id="g48">
			<g
   id="g32">
				<path
   style="fill:#fffbae"
   d="m 318.128,248.976 c -2.922,20.402 -20.261,35.837 -40.817,35.322 -22.112,-0.554 -39.59,-19.348 -39.179,-42.043 -61.091,0.729 -108.6,14.372 -109.049,32.324 -0.489,19.513 56.786,52.31 125.486,54.03 68.701,1.721 122.477,-14.638 123.283,-46.87 0.537,-21.385 -23.637,-25.68 -59.724,-32.763 z"
   id="path30" />
				<path
   style="fill:#efe886"
   d="m 369.425,264.382 c 1.702,3.031 2.561,6.563 2.458,10.759 -0.809,32.233 -54.585,48.591 -123.285,46.87 -51.592,-1.291 -96.739,-20.11 -115.819,-37.667 13.674,19.085 63.636,42.809 121.79,44.266 68.701,1.721 122.477,-14.638 123.283,-46.87 0.194,-7.69 -2.825,-13.163 -8.427,-17.358 z"
   id="path31" />
				<path
   style="fill:#ce4d4d"
   d="m 236.341,242.21 c -1.777,22.789 15.925,42.095 39.482,43.931 23.557,1.837 44.057,-13.661 45.834,-36.45 l -3.987,-0.819 c -1.613,20.686 -20.166,35.13 -41.551,33.463 -21.385,-1.668 -37.443,-19.34 -35.83,-40.027 z"
   id="path32" />
			</g>
			<path
   style="fill:#bf3c3c"
   d="m 131.911,272.838 c -0.641,-0.063 -1.29,0.164 -1.933,0.634 2.862,2.696 4.278,12.017 3.218,22.88 -1.033,10.59 -4.09,19.284 -7.326,21.656 0.48,0.453 1.001,0.725 1.558,0.779 3.875,0.378 8.021,-9.603 9.258,-22.29 1.238,-12.689 -0.9,-23.281 -4.775,-23.659 z"
   id="path33" />
			<g
   id="g37">
				<path
   style="fill:#ce4d4d"
   d="m 142.108,254.126 c -1.238,12.689 -5.383,22.668 -9.259,22.29 -3.875,-0.378 -6.013,-10.971 -4.775,-23.659 1.238,-12.688 5.383,-22.668 9.258,-22.29 3.875,0.378 6.014,10.97 4.776,23.659 z"
   id="path34" />
				<path
   style="fill:#bf3c3c"
   d="m 137.332,230.467 c -0.903,-0.088 -1.82,0.392 -2.711,1.331 2.284,3.602 3.323,12.096 2.373,21.829 -0.949,9.733 -3.61,17.866 -6.547,20.959 0.693,1.094 1.499,1.743 2.402,1.83 3.876,0.378 8.021,-9.601 9.259,-22.29 1.238,-12.689 -0.901,-23.281 -4.776,-23.659 z"
   id="path35" />
				<path
   style="fill:#ce4d4d"
   d="m 136.686,296.497 c -1.238,12.688 -5.383,22.668 -9.258,22.29 -3.876,-0.379 -6.014,-10.97 -4.776,-23.66 1.238,-12.688 5.383,-22.668 9.258,-22.289 3.876,0.378 6.014,10.97 4.776,23.659 z"
   id="path36" />
				<path
   style="fill:#bf3c3c"
   d="m 135.538,276.849 c -1.442,3.619 -5.544,5.384 -9.163,3.943 -3.618,-1.442 -5.383,-5.545 -3.942,-9.163 1.442,-3.618 5.544,-5.384 9.163,-3.942 3.618,1.441 5.383,5.543 3.942,9.162 z"
   id="path37" />
			</g>
			<g
   id="g43">
				<path
   style="fill:#ce4d4d"
   d="m 172.5,290.048 c -0.107,4.258 -3.645,7.623 -7.903,7.517 -4.257,-0.108 -7.623,-3.646 -7.516,-7.903 0.106,-4.257 3.645,-7.622 7.902,-7.515 4.258,0.106 7.623,3.643 7.517,7.901 z"
   id="path38" />
				<path
   style="fill:#9af5fc"
   d="m 169.866,289.981 c -0.07,2.804 -2.399,5.019 -5.202,4.948 -2.804,-0.07 -5.018,-2.398 -4.948,-5.201 0.07,-2.804 2.399,-5.019 5.202,-4.948 2.802,0.07 5.018,2.4 4.948,5.201 z"
   id="path39" />
				<path
   style="fill:#ce4d4d"
   d="m 196.123,295.718 c -0.107,4.258 -3.644,7.623 -7.903,7.516 -4.258,-0.105 -7.623,-3.645 -7.516,-7.901 0.106,-4.258 3.645,-7.624 7.902,-7.517 4.259,0.106 7.624,3.644 7.517,7.902 z"
   id="path40" />
				<path
   style="fill:#9af5fc"
   d="m 193.489,295.652 c -0.071,2.803 -2.399,5.019 -5.202,4.947 -2.803,-0.069 -5.018,-2.399 -4.948,-5.201 0.07,-2.804 2.399,-5.018 5.202,-4.949 2.803,0.072 5.019,2.401 4.948,5.203 z"
   id="path41" />
				<path
   style="fill:#ce4d4d"
   d="m 221.66,302.366 c -0.106,4.258 -3.645,7.623 -7.902,7.516 -4.258,-0.104 -7.623,-3.645 -7.516,-7.902 0.106,-4.258 3.645,-7.623 7.902,-7.516 4.258,0.106 7.623,3.644 7.516,7.902 z"
   id="path42" />
				<path
   style="fill:#9af5fc"
   d="m 219.027,302.301 c -0.07,2.803 -2.4,5.018 -5.202,4.947 -2.804,-0.069 -5.018,-2.399 -4.948,-5.202 0.07,-2.803 2.399,-5.018 5.202,-4.948 2.802,0.07 5.018,2.399 4.948,5.203 z"
   id="path43" />
			</g>
			<g
   id="g45">
				<path
   style="fill:#50b5cc"
   d="m 243.541,298.415 c 0,0 54.196,-14.196 68.877,-4.54 0,0 27.993,22.863 19.569,37.846 -8.423,14.983 -59.166,19.531 -69.448,7.673 -10.282,-11.856 -18.998,-40.979 -18.998,-40.979 z"
   id="path44" />
				<path
   style="fill:#3baabc"
   d="m 266.304,329.901 c -8.337,-7.243 -17.103,-23.053 -21.568,-31.79 -0.77,0.192 -1.194,0.304 -1.194,0.304 0,0 8.716,29.123 18.998,40.979 10.282,11.858 61.025,7.311 69.448,-7.673 2.569,-4.569 1.742,-9.871 -0.636,-15.034 -12.111,13.762 -54.251,22.595 -65.048,13.214 z"
   id="path45" />
			</g>
			<g
   id="g47">
				<path
   style="fill:#50b5cc"
   d="m 332.901,251.915 c 0,0 11.972,-46.361 31.793,-39.12 19.821,7.242 11.749,60.343 11.749,60.343 0,0 -50.179,-11.246 -43.542,-21.223 z"
   id="path46" />
				<path
   style="fill:#3baabc"
   d="m 367.215,214.054 c 8.161,17.265 2.975,51.4 2.975,51.4 0,0 -25.504,-5.718 -37.739,-12.615 -3.147,9.734 43.993,20.3 43.993,20.3 0,0 7.356,-48.403 -9.229,-59.085 z"
   id="path47" />
			</g>
			<path
   style="opacity:0.49;fill:#ffffff"
   d="m 240.289,242.309 c 0,0 2.369,-30.941 -3.236,-30.772 -5.605,0.17 -43.893,33.812 -40.718,33.434 3.173,-0.378 29.188,4.71 43.954,-2.662 z"
   id="path48" />
		</g>
	</g>
	
	
	
	
	<g
   id="g90">
		
		<g
   id="g89">
			
			<text
   id="text89">			<textPath
   xlink:href="#SVGID_x5F_00000017488737136701475210000002000706229401092281_x5F_"
   startOffset="8.5450001%"
   id="textPath89"> <tspan
   style="font-size:30px;font-family:Bebas;letter-spacing:53;fill:#ffffff"
   id="tspan87">CHILDREN</tspan><tspan
   style="font-size:30px;font-family:BebasNeueBold;letter-spacing:53;fill:#ffffff"
   id="tspan88">’</tspan><tspan
   style="font-size:30px;font-family:Bebas;letter-spacing:53;fill:#ffffff"
   id="tspan89">S DAY</tspan>			</textPath></text>
		</g>
	</g>
	
	
	
</g>

</svg>
